<svg xmlns="http://www.w3.org/2000/svg" width="518.191" height="477.861" viewBox="0 0 518.191 477.861"><defs><style>.cls-1{fill:#e6e6e6;}</style></defs><g id="Layer_2" data-name="Layer 2"><g id="Layer_1-2" data-name="Layer 1"><path class="cls-1" d="M220.888,150.443V77.075a159.307,159.307,0,0,0-114.931-3.583,57.989,57.989,0,0,1-87.388,75.222A158.836,158.836,0,0,0,158.8,382.076q6.024,0,11.939-.445V150.443Z"/><path class="cls-1" d="M299.919,150.443h67.83L518.191,0h-297.3V77.075A159.375,159.375,0,0,1,299.919,150.443Z"/><path class="cls-1" d="M220.888,150.443V297.3l95.292-95.292a157.684,157.684,0,0,0-16.261-51.568Z"/><polygon class="cls-1" points="319.473 437 457.298 299.174 457.298 269.502 289.8 437 319.473 437"/><polygon class="cls-1" points="457.298 437 457.298 331.702 352 437 457.298 437"/><path class="cls-1" d="M457.3,150.443H367.749L316.18,202.011a158.873,158.873,0,0,1-145.44,179.62V437h86.533L457.3,236.975Z"/><path class="cls-1" d="M236.044,458.229a11.5,11.5,0,0,0,16.263,16.264L289.8,437H257.273Z"/><path class="cls-1" d="M486.044,208.229,457.3,236.975V269.5l45.009-45.009a11.5,11.5,0,1,0-16.263-16.264Z"/><path class="cls-1" d="M497.907,291.092a11.5,11.5,0,0,0-16.264-16.263L457.3,299.174V331.7Z"/><path class="cls-1" d="M298.244,458.229a11.5,11.5,0,0,0,16.264,16.264L352,437H319.473Z"/><path class="cls-1" d="M105.957,73.492a57.993,57.993,0,1,0-87.388,75.222A159.3,159.3,0,0,1,105.957,73.492Z"/></g></g></svg>