<svg xmlns="http://www.w3.org/2000/svg" width="390" height="437" viewBox="0 0 390 437"><defs><style>.cls-1{fill:#e6e6e6;}</style></defs><g id="Layer_2" data-name="Layer 2"><g id="Layer_1-2" data-name="Layer 1"><path class="cls-1" d="M351.561,0H38.439A38.439,38.439,0,0,0,0,38.439V267.561A38.439,38.439,0,0,0,38.439,306H351.561A38.439,38.439,0,0,0,390,267.561V38.439A38.439,38.439,0,0,0,351.561,0Zm6.974,258.231c0,9.814-8.251,17.769-18.429,17.769H49.894c-10.178,0-18.429-7.955-18.429-17.769V51.769C31.465,41.955,39.716,34,49.894,34H340.106c10.178,0,18.429,7.955,18.429,17.769Z"/><path class="cls-1" d="M328.34,63.5H123.5V52.68a4.192,4.192,0,0,0-4.18-4.18H57.64a4.141,4.141,0,0,0-4.14,4.14v196.7a8.16,8.16,0,0,0,8.16,8.16H328.34a8.16,8.16,0,0,0,8.16-8.16V71.66A8.16,8.16,0,0,0,328.34,63.5ZM76,95.26A5.26,5.26,0,0,1,81.26,90h80.947a5.26,5.26,0,0,1,5.26,5.26v82.032a5.26,5.26,0,0,1-5.26,5.26H81.26a5.26,5.26,0,0,1-5.26-5.26ZM309.821,226.74a5.26,5.26,0,0,1-5.26,5.26H223.614a5.26,5.26,0,0,1-5.26-5.26V144.708a5.26,5.26,0,0,1,5.26-5.26h80.947a5.26,5.26,0,0,1,5.26,5.26ZM308,103.7H180c-.829,0-1.5-1.388-1.5-3.1s.671-3.1,1.5-3.1H308c.828,0,1.5,1.388,1.5,3.1S308.828,103.7,308,103.7Zm.416,20.259h-128c-.828,0-1.5-1.388-1.5-3.1s.672-3.1,1.5-3.1h128c.828,0,1.5,1.389,1.5,3.1S309.244,123.962,308.416,123.962ZM205.208,203.833h-128c-.828,0-1.5-1.389-1.5-3.1s.672-3.1,1.5-3.1h128c.828,0,1.5,1.388,1.5,3.1S206.036,203.833,205.208,203.833Zm.416,20.259h-128c-.828,0-1.5-1.388-1.5-3.1s.672-3.1,1.5-3.1h128c.829,0,1.5,1.388,1.5,3.1S206.453,224.092,205.624,224.092Z"/><path class="cls-1" d="M355.94,315.56H34.06A34.06,34.06,0,0,0,0,349.62v53.32A34.06,34.06,0,0,0,34.06,437H355.94A34.06,34.06,0,0,0,390,402.94V349.62A34.06,34.06,0,0,0,355.94,315.56ZM49.041,415.72a8.56,8.56,0,0,1-8.56,8.56h-8.35a8.56,8.56,0,0,1-8.56-8.56v-8.349a8.56,8.56,0,0,1,8.56-8.56h8.35a8.56,8.56,0,0,1,8.56,8.56Zm0-35.265a8.561,8.561,0,0,1-8.56,8.56h-8.35a8.561,8.561,0,0,1-8.56-8.56v-8.35a8.561,8.561,0,0,1,8.56-8.56h8.35a8.561,8.561,0,0,1,8.56,8.56Zm0-35.266a8.56,8.56,0,0,1-8.56,8.56h-8.35a8.56,8.56,0,0,1-8.56-8.56V336.84a8.56,8.56,0,0,1,8.56-8.56h8.35a8.56,8.56,0,0,1,8.56,8.56ZM84.306,415.72a8.559,8.559,0,0,1-8.56,8.56H67.4a8.559,8.559,0,0,1-8.56-8.56v-8.349a8.559,8.559,0,0,1,8.56-8.56h8.349a8.559,8.559,0,0,1,8.56,8.56Zm0-35.265a8.56,8.56,0,0,1-8.56,8.56H67.4a8.56,8.56,0,0,1-8.56-8.56v-8.35a8.56,8.56,0,0,1,8.56-8.56h8.349a8.56,8.56,0,0,1,8.56,8.56Zm0-35.266a8.559,8.559,0,0,1-8.56,8.56H67.4a8.559,8.559,0,0,1-8.56-8.56V336.84a8.559,8.559,0,0,1,8.56-8.56h8.349a8.559,8.559,0,0,1,8.56,8.56Zm35.265,70.531a8.559,8.559,0,0,1-8.56,8.56h-8.349a8.56,8.56,0,0,1-8.56-8.56v-8.349a8.56,8.56,0,0,1,8.56-8.56h8.349a8.559,8.559,0,0,1,8.56,8.56Zm0-35.265a8.56,8.56,0,0,1-8.56,8.56h-8.349a8.561,8.561,0,0,1-8.56-8.56v-8.35a8.561,8.561,0,0,1,8.56-8.56h8.349a8.56,8.56,0,0,1,8.56,8.56Zm0-35.266a8.559,8.559,0,0,1-8.56,8.56h-8.349a8.56,8.56,0,0,1-8.56-8.56V336.84a8.56,8.56,0,0,1,8.56-8.56h8.349a8.559,8.559,0,0,1,8.56,8.56Zm35.266,70.531a8.56,8.56,0,0,1-8.56,8.56h-8.35a8.56,8.56,0,0,1-8.56-8.56v-8.349a8.56,8.56,0,0,1,8.56-8.56h8.35a8.56,8.56,0,0,1,8.56,8.56Zm0-35.265a8.561,8.561,0,0,1-8.56,8.56h-8.35a8.561,8.561,0,0,1-8.56-8.56v-8.35a8.561,8.561,0,0,1,8.56-8.56h8.35a8.561,8.561,0,0,1,8.56,8.56Zm0-35.266a8.56,8.56,0,0,1-8.56,8.56h-8.35a8.56,8.56,0,0,1-8.56-8.56V336.84a8.56,8.56,0,0,1,8.56-8.56h8.35a8.56,8.56,0,0,1,8.56,8.56ZM190.1,415.72a8.559,8.559,0,0,1-8.56,8.56h-8.349a8.559,8.559,0,0,1-8.56-8.56v-8.349a8.559,8.559,0,0,1,8.56-8.56h8.349a8.559,8.559,0,0,1,8.56,8.56Zm0-35.265a8.56,8.56,0,0,1-8.56,8.56h-8.349a8.56,8.56,0,0,1-8.56-8.56v-8.35a8.56,8.56,0,0,1,8.56-8.56h8.349a8.56,8.56,0,0,1,8.56,8.56Zm0-35.266a8.559,8.559,0,0,1-8.56,8.56h-8.349a8.559,8.559,0,0,1-8.56-8.56V336.84a8.559,8.559,0,0,1,8.56-8.56h8.349a8.559,8.559,0,0,1,8.56,8.56Zm35.265,70.531a8.559,8.559,0,0,1-8.56,8.56h-8.349a8.559,8.559,0,0,1-8.56-8.56v-8.349a8.559,8.559,0,0,1,8.56-8.56h8.349a8.559,8.559,0,0,1,8.56,8.56Zm0-35.265a8.56,8.56,0,0,1-8.56,8.56h-8.349a8.56,8.56,0,0,1-8.56-8.56v-8.35a8.56,8.56,0,0,1,8.56-8.56h8.349a8.56,8.56,0,0,1,8.56,8.56Zm0-35.266a8.559,8.559,0,0,1-8.56,8.56h-8.349a8.559,8.559,0,0,1-8.56-8.56V336.84a8.559,8.559,0,0,1,8.56-8.56h8.349a8.559,8.559,0,0,1,8.56,8.56Zm35.266,70.531a8.56,8.56,0,0,1-8.56,8.56h-8.35a8.56,8.56,0,0,1-8.56-8.56v-8.349a8.56,8.56,0,0,1,8.56-8.56h8.35a8.56,8.56,0,0,1,8.56,8.56Zm0-35.265a8.561,8.561,0,0,1-8.56,8.56h-8.35a8.561,8.561,0,0,1-8.56-8.56v-8.35a8.561,8.561,0,0,1,8.56-8.56h8.35a8.561,8.561,0,0,1,8.56,8.56Zm0-35.266a8.56,8.56,0,0,1-8.56,8.56h-8.35a8.56,8.56,0,0,1-8.56-8.56V336.84a8.56,8.56,0,0,1,8.56-8.56h8.35a8.56,8.56,0,0,1,8.56,8.56ZM295.9,415.72a8.56,8.56,0,0,1-8.56,8.56h-8.349a8.559,8.559,0,0,1-8.56-8.56v-8.349a8.559,8.559,0,0,1,8.56-8.56h8.349a8.56,8.56,0,0,1,8.56,8.56Zm0-35.265a8.561,8.561,0,0,1-8.56,8.56h-8.349a8.56,8.56,0,0,1-8.56-8.56v-8.35a8.56,8.56,0,0,1,8.56-8.56h8.349a8.561,8.561,0,0,1,8.56,8.56Zm0-35.266a8.56,8.56,0,0,1-8.56,8.56h-8.349a8.559,8.559,0,0,1-8.56-8.56V336.84a8.559,8.559,0,0,1,8.56-8.56h8.349a8.56,8.56,0,0,1,8.56,8.56Zm35.265,70.531a8.559,8.559,0,0,1-8.56,8.56h-8.349a8.559,8.559,0,0,1-8.56-8.56v-8.349a8.559,8.559,0,0,1,8.56-8.56H322.6a8.559,8.559,0,0,1,8.56,8.56Zm0-35.265a8.56,8.56,0,0,1-8.56,8.56h-8.349a8.56,8.56,0,0,1-8.56-8.56v-8.35a8.56,8.56,0,0,1,8.56-8.56H322.6a8.56,8.56,0,0,1,8.56,8.56Zm0-35.266a8.559,8.559,0,0,1-8.56,8.56h-8.349a8.559,8.559,0,0,1-8.56-8.56V336.84a8.559,8.559,0,0,1,8.56-8.56H322.6a8.559,8.559,0,0,1,8.56,8.56Zm35.266,70.531a8.56,8.56,0,0,1-8.56,8.56h-8.35a8.56,8.56,0,0,1-8.56-8.56v-8.349a8.56,8.56,0,0,1,8.56-8.56h8.35a8.56,8.56,0,0,1,8.56,8.56Zm0-35.265a8.561,8.561,0,0,1-8.56,8.56h-8.35a8.561,8.561,0,0,1-8.56-8.56v-8.35a8.561,8.561,0,0,1,8.56-8.56h8.35a8.561,8.561,0,0,1,8.56,8.56Zm0-35.266a8.56,8.56,0,0,1-8.56,8.56h-8.35a8.56,8.56,0,0,1-8.56-8.56V336.84a8.56,8.56,0,0,1,8.56-8.56h8.35a8.56,8.56,0,0,1,8.56,8.56Z"/></g></g></svg>